<svg xmlns="http://www.w3.org/2000/svg" class="svg-logo" width="2400" height="2400" viewBox="0 0 630 430" style="height: auto;"><rect width="630" height="630" y="-100" rx="0" ry="0" fill="transparent" fill-opacity="0"></rect><g data-element="wrapper" transform="translate(-14.375405120852975 -6.825014495851889) scale(0.9500000000000097)"><g ><g data-element="icon" transform="scale(0.1724901712677576) translate(706.8051232708824 946.4473123730368)"><path id="color_x5F_1" d="M560.091,320.619c-9.058,117.89-98.526,216.223-215.033,236.376c-22.547,3.9-44.624,4.767-65.974,3.05    c-17.087-1.374-30.381-15.469-31.026-32.599l-6.512-172.96c-0.435-11.55,6.438-21.71,16.766-26.898    c23.827-11.968,40.305-38.516,40.305-74.792c0-50.251-31.596-109.137-70.573-109.137s-70.573,58.886-70.573,109.137    c0,36.276,16.478,62.824,40.304,74.792c10.329,5.188,17.201,15.348,16.766,26.898l-5.136,136.421    c-0.998,26.517-30.636,41.614-52.792,27.012C85.835,471.274,39.116,391.108,39.116,300C39.116,155.918,155.917,39.116,300,39.116    c0.11,0,0.22,0,0.33,0c18.015,0.025,32.564,14.821,33.152,32.826l6.615,202.603c0,13.874-7.779,27.198-20.771,32.234    c-12.96,5.023-20.708,18.449-20.708,32.349l0,157.099c0,5.898,4.781,10.679,10.679,10.679h1.037c5.898,0,10.68-4.781,10.68-10.679    V364.476c0-5.83,4.727-10.557,10.557-10.557c5.83,0,10.557,4.727,10.557,10.557v131.751c0,5.898,4.781,10.679,10.679,10.679    s10.68-4.781,10.68-10.679V364.476c0-5.83,4.727-10.557,10.557-10.557c5.83,0,10.557,4.727,10.557,10.557v131.751    c0,5.898,4.781,10.679,10.679,10.679h1.037c5.898,0,10.68-4.781,10.68-10.679l-0.001-157.21c0-13.638-7.519-26.746-20.117-31.97    c-12.952-5.37-21.362-18-21.362-31.978l5.774-177.196c0.823-25.267,27.842-40.506,50.206-28.717    C510.012,115.815,568.449,211.829,560.091,320.619z" fill="#000000" fill-opacity="1"></path></g><path d="M239.19 232.17L239.19 232.17L239.19 197.10L235.35 197.10Q234.71 197.10 234.30 196.68Q233.88 196.26 233.88 195.62Q233.88 194.98 234.30 194.54Q234.71 194.09 235.35 194.09L235.35 194.09L240.66 194.09Q241.69 194.09 242.33 194.86L242.33 194.86L258.39 216.81L274.39 194.92Q274.97 194.09 275.99 194.09L275.99 194.09L281.43 194.09Q282.07 194.09 282.49 194.54Q282.90 194.98 282.90 195.62Q282.90 196.26 282.49 196.68Q282.07 197.10 281.43 197.10L281.43 197.10L277.59 197.10L277.59 229.03Q277.59 229.99 279.06 229.99L279.06 229.99L281.43 229.99Q282.07 229.99 282.49 230.44Q282.90 230.89 282.90 231.53Q282.90 232.17 282.49 232.58Q282.07 233 281.43 233L281.43 233L279.06 233Q274.14 233 274.14 229.03L274.14 229.03L274.14 200.81L259.80 220.39Q259.29 221.10 258.39 221.10Q257.50 221.10 256.98 220.39L256.98 220.39L242.65 200.81L242.65 232.17Q242.65 232.81 242.14 233.22Q241.62 233.64 240.92 233.64Q240.22 233.64 239.70 233.22Q239.19 232.81 239.19 232.17ZM299.67 230.70Q303.58 230.70 306.04 228.01Q308.50 225.32 308.50 221.06Q308.50 216.81 306.04 214.09Q303.58 211.37 299.67 211.37Q295.77 211.37 293.30 214.09Q290.84 216.81 290.84 221.06Q290.84 225.32 293.30 228.01Q295.77 230.70 299.67 230.70ZM290.81 230.09Q287.38 226.54 287.38 221.03Q287.38 215.53 290.84 211.98Q294.30 208.42 299.67 208.42Q305.05 208.42 308.47 211.98Q311.90 215.53 311.90 221.06Q311.90 226.60 308.47 230.12Q305.05 233.64 299.64 233.64Q294.23 233.64 290.81 230.09ZM329.43 230.70Q333.34 230.70 335.80 228.01Q338.26 225.32 338.26 221.06Q338.26 216.81 335.80 214.09Q333.34 211.37 329.43 211.37Q325.53 211.37 323.06 214.09Q320.60 216.81 320.60 221.06Q320.60 225.32 323.06 228.01Q325.53 230.70 329.43 230.70ZM320.57 230.09Q317.14 226.54 317.14 221.03Q317.14 215.53 320.60 211.98Q324.06 208.42 329.43 208.42Q334.81 208.42 338.23 211.98Q341.66 215.53 341.66 221.06Q341.66 226.60 338.23 230.12Q334.81 233.64 329.40 233.64Q323.99 233.64 320.57 230.09ZM358.36 211.37L358.36 211.37Q354.71 211.37 352.54 213.99Q350.36 216.62 350.36 221.10Q350.36 225.58 352.50 228.14Q354.65 230.70 358.36 230.70L358.36 230.70Q363.74 230.70 366.94 224.62L366.94 224.62L366.94 215.21Q365.27 213.61 362.94 212.49Q360.60 211.37 358.36 211.37ZM366.94 211.82L366.94 188.01L362.71 188.01Q362.07 188.01 361.66 187.59Q361.24 187.18 361.24 186.54Q361.24 185.90 361.66 185.45Q362.07 185 362.71 185L362.71 185L368.66 185Q369.37 185 369.88 185.45Q370.39 185.90 370.39 186.54L370.39 186.54L370.39 228.78Q370.39 229.99 371.67 229.99L371.67 229.99L374.62 229.99Q375.26 229.99 375.67 230.41Q376.09 230.82 376.09 231.46Q376.09 232.10 375.67 232.55Q375.26 233 374.62 233L374.62 233L371.22 233Q367.06 233 367.19 228.46L367.19 228.46Q365.78 230.63 363.51 232.14Q361.24 233.64 358.36 233.64L358.36 233.64Q352.66 233.64 349.82 229.99Q346.97 226.34 346.97 220.97Q346.97 215.59 349.94 212.01Q352.92 208.42 358.10 208.42Q363.29 208.42 366.94 211.82L366.94 211.82ZM383.19 232.17L383.19 197.10L379.42 197.10Q378.78 197.10 378.36 196.68Q377.94 196.26 377.94 195.62Q377.94 194.98 378.36 194.54Q378.78 194.09 379.42 194.09L379.42 194.09L407.70 194.09Q409.37 194.09 409.37 195.62L409.37 195.62L409.37 200.87Q409.37 201.51 408.86 201.93Q408.34 202.34 407.64 202.34Q406.94 202.34 406.42 201.93Q405.91 201.51 405.91 200.87L405.91 200.87L405.91 197.10L386.65 197.10L386.65 211.94L402.84 211.94L402.84 209.58Q402.84 208.94 403.32 208.52Q403.80 208.10 404.50 208.10Q405.21 208.10 405.69 208.52Q406.17 208.94 406.17 209.58L406.17 209.58L406.17 217.38Q406.17 218.02 405.69 218.44Q405.21 218.86 404.50 218.86Q403.80 218.86 403.32 218.44Q402.84 218.02 402.84 217.38L402.84 217.38L402.84 214.95L386.65 214.95L386.65 232.17Q386.65 232.81 386.14 233.22Q385.62 233.64 384.92 233.64Q384.22 233.64 383.70 233.22Q383.19 232.81 383.19 232.17L383.19 232.17ZM424.28 230.70Q428.18 230.70 430.65 228.01Q433.11 225.32 433.11 221.06Q433.11 216.81 430.65 214.09Q428.18 211.37 424.28 211.37Q420.38 211.37 417.91 214.09Q415.45 216.81 415.45 221.06Q415.45 225.32 417.91 228.01Q420.38 230.70 424.28 230.70ZM415.42 230.09Q411.99 226.54 411.99 221.03Q411.99 215.53 415.45 211.98Q418.90 208.42 424.28 208.42Q429.66 208.42 433.08 211.98Q436.50 215.53 436.50 221.06Q436.50 226.60 433.08 230.12Q429.66 233.64 424.25 233.64Q418.84 233.64 415.42 230.09ZM454.04 230.70Q457.94 230.70 460.41 228.01Q462.87 225.32 462.87 221.06Q462.87 216.81 460.41 214.09Q457.94 211.37 454.04 211.37Q450.14 211.37 447.67 214.09Q445.21 216.81 445.21 221.06Q445.21 225.32 447.67 228.01Q450.14 230.70 454.04 230.70ZM445.18 230.09Q441.75 226.54 441.75 221.03Q441.75 215.53 445.21 211.98Q448.66 208.42 454.04 208.42Q459.42 208.42 462.84 211.98Q466.26 215.53 466.26 221.06Q466.26 226.60 462.84 230.12Q459.42 233.64 454.01 233.64Q448.60 233.64 445.18 230.09ZM482.97 211.37L482.97 211.37Q479.32 211.37 477.14 213.99Q474.97 216.62 474.97 221.10Q474.97 225.58 477.11 228.14Q479.26 230.70 482.97 230.70L482.97 230.70Q488.34 230.70 491.54 224.62L491.54 224.62L491.54 215.21Q489.88 213.61 487.54 212.49Q485.21 211.37 482.97 211.37ZM491.54 211.82L491.54 188.01L487.32 188.01Q486.68 188.01 486.26 187.59Q485.85 187.18 485.85 186.54Q485.85 185.90 486.26 185.45Q486.68 185 487.32 185L487.32 185L493.27 185Q493.98 185 494.49 185.45Q495.00 185.90 495.00 186.54L495.00 186.54L495.00 228.78Q495.00 229.99 496.28 229.99L496.28 229.99L499.22 229.99Q499.86 229.99 500.28 230.41Q500.70 230.82 500.70 231.46Q500.70 232.10 500.28 232.55Q499.86 233 499.22 233L499.22 233L495.83 233Q491.67 233 491.80 228.46L491.80 228.46Q490.39 230.63 488.12 232.14Q485.85 233.64 482.97 233.64L482.97 233.64Q477.27 233.64 474.42 229.99Q471.58 226.34 471.58 220.97Q471.58 215.59 474.55 212.01Q477.53 208.42 482.71 208.42Q487.90 208.42 491.54 211.82L491.54 211.82Z" data-element="company-name" data-text-path="" data-text="MoodFood" data-font-family="Flamenco" fill="#000000" fill-opacity="1"></path><path d="M234.04 281.04Q233.48 281.04 233.23 280.94Q232.97 280.83 232.97 280.62L232.97 280.62Q232.97 280.52 233.04 280.28L233.04 280.28L238.96 263.84Q239.10 263.44 239.96 263.44L239.96 263.44L240.69 263.44Q241.55 263.44 241.69 263.84L241.69 263.84L247.61 280.30Q247.68 280.45 247.68 280.62L247.68 280.62Q247.68 281.04 246.63 281.04L246.63 281.04L246.42 281.04Q245.55 281.04 245.40 280.65L245.40 280.65L243.94 276.54L236.60 276.54L235.17 280.65Q235.04 281.04 234.17 281.04L234.17 281.04L234.04 281.04ZM237.29 274.64L243.27 274.64L240.65 267.20Q240.54 266.90 240.47 266.50Q240.40 266.11 240.34 265.74L240.34 265.74L240.29 265.74Q240.12 266.68 239.91 267.20L239.91 267.20L237.29 274.64ZM251.42 281.04Q250.41 281.04 250.41 280.49L250.41 280.49L250.41 264.00Q250.41 263.44 251.42 263.44L251.42 263.44L251.62 263.44Q252.62 263.44 252.62 264.00L252.62 264.00L252.62 280.49Q252.62 281.04 251.62 281.04L251.62 281.04L251.42 281.04ZM256.65 275.25Q256.39 275.25 256.27 275.07Q256.15 274.90 256.15 274.50L256.15 274.50L256.15 274.24Q256.15 273.86 256.27 273.67Q256.39 273.49 256.65 273.49L256.65 273.49L261.38 273.49Q261.65 273.49 261.77 273.67Q261.89 273.86 261.89 274.24L261.89 274.24L261.89 274.50Q261.89 274.90 261.77 275.07Q261.65 275.25 261.38 275.25L261.38 275.25L256.65 275.25ZM272.55 281.14Q268.44 281.14 266.47 278.98Q264.50 276.81 264.50 272.24L264.50 272.24Q264.50 263.34 272.59 263.34L272.59 263.34Q273.77 263.34 274.88 263.58Q275.99 263.83 276.68 264.20Q277.37 264.56 277.37 264.90L277.37 264.90Q277.37 265.11 277.22 265.46Q277.07 265.81 276.88 266.08Q276.68 266.35 276.52 266.35L276.52 266.35Q276.45 266.35 276.13 266.16L276.13 266.16Q275.40 265.77 274.60 265.50Q273.80 265.24 272.64 265.24L272.64 265.24Q269.62 265.24 268.19 266.92Q266.77 268.60 266.77 272.27L266.77 272.27Q266.77 275.85 268.18 277.55Q269.59 279.24 272.55 279.24L272.55 279.24Q273.78 279.24 274.67 278.95Q275.55 278.65 276.37 278.22L276.37 278.22Q276.76 278.00 276.85 278.00L276.85 278.00Q277.00 278.00 277.21 278.27Q277.41 278.54 277.57 278.87Q277.72 279.20 277.72 279.34L277.72 279.34Q277.72 279.69 277.01 280.12Q276.30 280.55 275.11 280.85Q273.92 281.14 272.55 281.14L272.55 281.14ZM281.81 281.04Q281.28 281.04 281.04 280.91Q280.80 280.77 280.80 280.49L280.80 280.49L280.80 271.72Q280.80 270.09 280.65 269.36Q280.49 268.64 280.49 268.57L280.49 268.57Q280.49 268.26 280.96 268.13Q281.43 267.99 281.85 267.99L281.85 267.99Q282.19 267.99 282.36 268.35Q282.53 268.71 282.66 269.36L282.66 269.36L282.73 269.65Q284.06 267.78 285.62 267.78L285.62 267.78Q286.34 267.78 286.71 268.04Q287.07 268.30 287.07 268.74L287.07 268.74Q287.07 269.16 286.92 269.63Q286.78 270.10 286.58 270.10L286.58 270.10Q286.48 270.10 286.23 270.02L286.23 270.02Q286.00 269.92 285.78 269.87Q285.55 269.82 285.20 269.82L285.20 269.82Q284.63 269.82 284.11 270.16Q283.60 270.50 283.25 270.90Q282.90 271.31 282.90 271.35L282.90 271.35L282.90 280.49Q282.90 280.77 282.66 280.91Q282.42 281.04 281.91 281.04L281.91 281.04L281.81 281.04ZM293.19 281.14Q291.28 281.14 290.10 280.20Q288.91 279.26 288.91 277.40L288.91 277.40Q288.91 275.45 290.11 274.45Q291.30 273.46 293.03 273.17Q294.75 272.89 297.21 272.84L297.21 272.84L297.21 271.66Q297.21 270.72 296.57 270.15Q295.93 269.58 294.47 269.58L294.47 269.58Q293.36 269.58 292.52 269.84Q291.68 270.10 290.95 270.47L290.95 270.47Q290.64 270.62 290.57 270.62L290.57 270.62Q290.40 270.62 290.20 270.38Q290.00 270.13 289.85 269.82Q289.70 269.51 289.70 269.37L289.70 269.37Q289.70 269.05 290.37 268.67Q291.04 268.29 292.12 268.03Q293.20 267.78 294.38 267.78L294.38 267.78Q296.73 267.78 298.03 268.81Q299.32 269.83 299.32 271.69L299.32 271.69L299.32 277.30Q299.32 278.93 299.47 279.66Q299.62 280.38 299.62 280.45L299.62 280.45Q299.62 280.76 299.14 280.89Q298.67 281.03 298.27 281.03L298.27 281.03Q297.93 281.03 297.77 280.65Q297.60 280.27 297.45 279.55L297.45 279.55L297.39 279.27Q296.62 280.13 295.57 280.63Q294.53 281.14 293.19 281.14L293.19 281.14ZM293.30 279.33Q294.54 279.33 295.41 278.88Q296.28 278.43 297.21 277.60L297.21 277.60L297.21 274.64Q295.35 274.66 294.16 274.80Q292.96 274.94 292.06 275.51Q291.16 276.08 291.16 277.27L291.16 277.27Q291.16 278.27 291.71 278.80Q292.25 279.33 293.30 279.33L293.30 279.33ZM305.02 281.04Q304.50 281.04 304.26 280.91Q304.02 280.77 304.02 280.49L304.02 280.49L304.02 269.72L303.02 269.72Q302.51 269.72 302.51 268.98L302.51 268.98L302.51 268.67Q302.51 267.92 303.02 267.92L303.02 267.92L304.02 267.92L304.02 265.55Q304.02 263.58 304.99 262.84Q305.97 262.10 307.24 262.10L307.24 262.10Q309.07 262.10 309.07 262.86L309.07 262.86Q309.07 262.99 309.00 263.27Q308.94 263.56 308.82 263.79Q308.70 264.01 308.55 264.01L308.55 264.01Q308.46 264.01 308.19 263.96Q307.93 263.90 307.46 263.90L307.46 263.90Q307.04 263.90 306.75 264.03Q306.46 264.15 306.29 264.56Q306.11 264.97 306.11 265.74L306.11 265.74L306.11 267.92L308.29 267.92Q308.56 267.92 308.68 268.10Q308.80 268.27 308.80 268.67L308.80 268.67L308.80 268.98Q308.80 269.37 308.68 269.55Q308.56 269.72 308.29 269.72L308.29 269.72L306.11 269.72L306.11 280.49Q306.11 280.77 305.87 280.91Q305.63 281.04 305.13 281.04L305.13 281.04L305.02 281.04ZM315.35 281.14Q314.10 281.14 313.12 280.38Q312.13 279.62 312.13 277.70L312.13 277.70L312.13 269.72L310.88 269.72Q310.61 269.72 310.49 269.55Q310.37 269.37 310.37 268.98L310.37 268.98L310.37 268.67Q310.37 268.27 310.49 268.10Q310.61 267.92 310.88 267.92L310.88 267.92L312.13 267.92L312.43 265.31Q312.45 264.76 313.23 264.76L313.23 264.76L313.47 264.76Q313.86 264.76 314.04 264.89Q314.23 265.02 314.23 265.31L314.23 265.31L314.23 267.92L316.32 267.92Q316.59 267.92 316.71 268.10Q316.83 268.27 316.83 268.67L316.83 268.67L316.83 268.98Q316.83 269.37 316.71 269.55Q316.59 269.72 316.32 269.72L316.32 269.72L314.23 269.72L314.23 277.50Q314.23 278.52 314.59 278.93Q314.94 279.34 315.56 279.34L315.56 279.34Q316.04 279.34 316.30 279.28Q316.56 279.23 316.65 279.23L316.65 279.23Q316.87 279.23 317.02 279.68Q317.17 280.13 317.17 280.40L317.17 280.40Q317.17 281.14 315.35 281.14L315.35 281.14ZM325.52 281.14Q322.41 281.14 320.90 279.52Q319.39 277.89 319.39 274.55L319.39 274.55Q319.39 271.23 320.86 269.50Q322.34 267.78 325.21 267.78L325.21 267.78Q327.77 267.78 329.07 269.44Q330.37 271.10 330.37 274.31L330.37 274.31Q330.37 274.45 330.22 274.69Q330.07 274.94 329.87 275.13Q329.67 275.32 329.53 275.32L329.53 275.32L321.64 275.32Q321.79 277.41 322.71 278.38Q323.63 279.34 325.49 279.34L325.49 279.34Q326.53 279.34 327.28 279.09Q328.04 278.83 328.74 278.47L328.74 278.47Q328.81 278.44 328.95 278.37Q329.09 278.30 329.15 278.30L329.15 278.30Q329.30 278.30 329.51 278.55Q329.71 278.79 329.86 279.09Q330.00 279.40 330.00 279.54L330.00 279.54Q330.00 279.85 329.39 280.23Q328.77 280.61 327.73 280.87Q326.70 281.14 325.52 281.14L325.52 281.14ZM321.64 273.52L328.13 273.52Q328.13 269.58 325.14 269.58L325.14 269.58Q321.92 269.58 321.64 273.52L321.64 273.52ZM337.64 281.14Q336.18 281.14 335.08 280.29Q333.98 279.44 333.39 277.92Q332.79 276.40 332.79 274.48L332.79 274.48Q332.79 272.35 333.43 270.84Q334.07 269.33 335.22 268.55Q336.37 267.78 337.88 267.78L337.88 267.78Q338.96 267.78 339.80 268.10Q340.64 268.43 341.45 269.05L341.45 269.05L341.45 262.75Q341.45 262.20 342.44 262.20L342.44 262.20L342.55 262.20Q343.55 262.20 343.55 262.75L343.55 262.75L343.55 277.30Q343.55 278.93 343.70 279.66Q343.86 280.38 343.86 280.45L343.86 280.45Q343.86 280.76 343.39 280.89Q342.91 281.03 342.51 281.03L342.51 281.03Q342.22 281.03 342.06 280.76Q341.89 280.49 341.82 280.22Q341.76 279.95 341.62 279.27L341.62 279.27Q339.83 281.14 337.64 281.14L337.64 281.14ZM338.08 279.33Q338.91 279.33 339.80 278.88Q340.69 278.43 341.45 277.60L341.45 277.60L341.45 270.75Q340.10 269.62 338.37 269.62L338.37 269.62Q336.70 269.67 335.85 270.85Q335.00 272.03 335.00 274.28L335.00 274.28Q335.00 276.70 335.79 278.01Q336.59 279.33 338.08 279.33L338.08 279.33ZM354.90 281.04Q354.36 281.04 354.12 280.91Q353.88 280.77 353.88 280.49L353.88 280.49L353.88 264.00Q353.88 263.44 354.90 263.44L354.90 263.44L355.78 263.44Q356.61 263.44 356.84 263.90L356.84 263.90L361.56 272.10L362.21 273.67L362.85 272.24L367.59 263.90Q367.83 263.44 368.63 263.44L368.63 263.44L369.46 263.44Q370.46 263.44 370.46 264.00L370.46 264.00L370.46 280.49Q370.46 281.04 369.46 281.04L369.46 281.04L369.30 281.04Q368.76 281.04 368.52 280.91Q368.28 280.77 368.28 280.49L368.28 280.49L368.28 267.04L368.24 267.15L363.26 275.80Q363.16 275.97 363.04 276.04Q362.91 276.12 362.71 276.12L362.71 276.12L361.72 276.12Q361.34 276.12 361.15 275.80L361.15 275.80L356.06 266.90L356.06 280.49Q356.06 281.04 355.06 281.04L355.06 281.04L354.90 281.04ZM380.21 281.14Q377.10 281.14 375.59 279.52Q374.08 277.89 374.08 274.55L374.08 274.55Q374.08 271.23 375.55 269.50Q377.03 267.78 379.90 267.78L379.90 267.78Q382.46 267.78 383.76 269.44Q385.06 271.10 385.06 274.31L385.06 274.31Q385.06 274.45 384.91 274.69Q384.76 274.94 384.56 275.13Q384.36 275.32 384.22 275.32L384.22 275.32L376.33 275.32Q376.48 277.41 377.40 278.38Q378.32 279.34 380.18 279.34L380.18 279.34Q381.22 279.34 381.97 279.09Q382.72 278.83 383.43 278.47L383.43 278.47Q383.50 278.44 383.64 278.37Q383.78 278.30 383.84 278.30L383.84 278.30Q383.99 278.30 384.19 278.55Q384.40 278.79 384.55 279.09Q384.69 279.40 384.69 279.54L384.69 279.54Q384.69 279.85 384.07 280.23Q383.46 280.61 382.42 280.87Q381.39 281.14 380.21 281.14L380.21 281.14ZM376.33 273.52L382.82 273.52Q382.82 269.58 379.83 269.58L379.83 269.58Q376.61 269.58 376.33 273.52L376.33 273.52ZM391.68 281.14Q389.77 281.14 388.59 280.20Q387.41 279.26 387.41 277.40L387.41 277.40Q387.41 275.45 388.60 274.45Q389.80 273.46 391.52 273.17Q393.24 272.89 395.70 272.84L395.70 272.84L395.70 271.66Q395.70 270.72 395.06 270.15Q394.42 269.58 392.96 269.58L392.96 269.58Q391.85 269.58 391.01 269.84Q390.18 270.10 389.45 270.47L389.45 270.47Q389.14 270.62 389.07 270.62L389.07 270.62Q388.90 270.62 388.69 270.38Q388.49 270.13 388.34 269.82Q388.20 269.51 388.20 269.37L388.20 269.37Q388.20 269.05 388.86 268.67Q389.53 268.29 390.61 268.03Q391.70 267.78 392.88 267.78L392.88 267.78Q395.23 267.78 396.52 268.81Q397.81 269.83 397.81 271.69L397.81 271.69L397.81 277.30Q397.81 278.93 397.96 279.66Q398.11 280.38 398.11 280.45L398.11 280.45Q398.11 280.76 397.64 280.89Q397.17 281.03 396.76 281.03L396.76 281.03Q396.42 281.03 396.26 280.65Q396.10 280.27 395.94 279.55L395.94 279.55L395.89 279.27Q395.11 280.13 394.07 280.63Q393.02 281.14 391.68 281.14L391.68 281.14ZM391.80 279.33Q393.03 279.33 393.90 278.88Q394.78 278.43 395.70 277.60L395.70 277.60L395.70 274.64Q393.85 274.66 392.65 274.80Q391.46 274.94 390.56 275.51Q389.66 276.08 389.66 277.27L389.66 277.27Q389.66 278.27 390.20 278.80Q390.74 279.33 391.80 279.33L391.80 279.33ZM405.08 281.14Q403.83 281.14 402.85 280.38Q401.86 279.62 401.86 277.70L401.86 277.70L401.86 262.75Q401.86 262.20 402.86 262.20L402.86 262.20L402.97 262.20Q403.96 262.20 403.96 262.75L403.96 262.75L403.96 277.50Q403.96 278.52 404.32 278.93Q404.69 279.34 405.31 279.34L405.31 279.34Q405.77 279.34 406.04 279.28Q406.31 279.23 406.39 279.23L406.39 279.23Q406.62 279.23 406.76 279.68Q406.91 280.13 406.91 280.40L406.91 280.40Q406.91 281.14 405.08 281.14L405.08 281.14ZM412.10 281.24Q411.05 281.24 410.13 280.97Q409.22 280.70 408.68 280.32Q408.14 279.93 408.14 279.64L408.14 279.64Q408.14 279.50 408.28 279.19Q408.43 278.88 408.64 278.63Q408.84 278.38 409.01 278.38L409.01 278.38Q409.05 278.38 409.26 278.52L409.26 278.52Q409.82 278.89 410.45 279.14Q411.07 279.40 411.95 279.40L411.95 279.40Q414.39 279.40 414.39 277.37L414.39 277.37Q414.39 276.80 414.16 276.40Q413.93 276.01 413.39 275.71Q412.85 275.40 411.90 275.12L411.90 275.12Q410.55 274.73 409.80 274.22Q409.05 273.72 408.74 273.03Q408.43 272.35 408.43 271.38L408.43 271.38Q408.43 270.34 408.96 269.51Q409.49 268.68 410.44 268.22Q411.38 267.75 412.58 267.75L412.58 267.75Q413.41 267.75 414.18 267.91Q414.94 268.06 415.41 268.31Q415.88 268.55 415.88 268.82L415.88 268.82Q415.88 269.02 415.75 269.35Q415.62 269.68 415.42 269.93Q415.22 270.17 415.07 270.17L415.07 270.17Q415.04 270.17 414.72 270.00Q414.39 269.82 413.89 269.67Q413.40 269.52 412.79 269.52L412.79 269.52Q411.83 269.52 411.21 269.95Q410.58 270.38 410.58 271.10L410.58 271.10Q410.58 271.94 411.03 272.45Q411.48 272.96 412.52 273.28L412.52 273.28Q414.13 273.77 414.97 274.26Q415.81 274.76 416.17 275.47Q416.53 276.18 416.53 277.33L416.53 277.33Q416.53 278.43 415.94 279.32Q415.35 280.21 414.34 280.73Q413.32 281.24 412.10 281.24L412.10 281.24ZM418.60 283.90Q418.32 283.90 418.10 283.81Q417.88 283.73 417.88 283.52L417.88 283.52Q417.88 283.42 417.97 283.21Q418.06 283.01 418.09 282.93L418.09 282.93Q418.53 282.08 418.74 281.16Q418.95 280.24 418.95 279.10L418.95 279.10Q418.95 278.74 419.20 278.52Q419.46 278.30 419.95 278.30L419.95 278.30L420.19 278.30Q420.65 278.30 420.91 278.49Q421.17 278.68 421.17 278.99L421.17 278.99Q421.17 280.38 420.72 281.51Q420.27 282.63 419.66 283.26Q419.05 283.90 418.60 283.90L418.60 283.90ZM431.97 281.04Q430.96 281.04 430.96 280.49L430.96 280.49L430.96 264.00Q430.96 263.44 431.97 263.44L431.97 263.44L432.17 263.44Q433.17 263.44 433.17 264.00L433.17 264.00L433.17 271.07L442.22 271.07L442.22 264.00Q442.22 263.44 443.22 263.44L443.22 263.44L443.42 263.44Q444.42 263.44 444.42 264.00L444.42 264.00L444.42 280.49Q444.42 280.77 444.18 280.91Q443.94 281.04 443.42 281.04L443.42 281.04L443.22 281.04Q442.70 281.04 442.46 280.91Q442.22 280.77 442.22 280.49L442.22 280.49L442.22 272.97L433.17 272.97L433.17 280.49Q433.17 281.04 432.17 281.04L432.17 281.04L431.97 281.04ZM452.36 281.14Q450.45 281.14 449.27 280.20Q448.09 279.26 448.09 277.40L448.09 277.40Q448.09 275.45 449.28 274.45Q450.48 273.46 452.20 273.17Q453.92 272.89 456.38 272.84L456.38 272.84L456.38 271.66Q456.38 270.72 455.74 270.15Q455.10 269.58 453.64 269.58L453.64 269.58Q452.53 269.58 451.69 269.84Q450.86 270.10 450.13 270.47L450.13 270.47Q449.82 270.62 449.75 270.62L449.75 270.62Q449.58 270.62 449.37 270.38Q449.17 270.13 449.02 269.82Q448.87 269.51 448.87 269.37L448.87 269.37Q448.87 269.05 449.54 268.67Q450.21 268.29 451.29 268.03Q452.38 267.78 453.56 267.78L453.56 267.78Q455.91 267.78 457.20 268.81Q458.49 269.83 458.49 271.69L458.49 271.69L458.49 277.30Q458.49 278.93 458.64 279.66Q458.79 280.38 458.79 280.45L458.79 280.45Q458.79 280.76 458.32 280.89Q457.85 281.03 457.44 281.03L457.44 281.03Q457.10 281.03 456.94 280.65Q456.78 280.27 456.62 279.55L456.62 279.55L456.57 279.27Q455.79 280.13 454.75 280.63Q453.70 281.14 452.36 281.14L452.36 281.14ZM452.47 279.33Q453.71 279.33 454.58 278.88Q455.46 278.43 456.38 277.60L456.38 277.60L456.38 274.64Q454.53 274.66 453.33 274.80Q452.14 274.94 451.24 275.51Q450.34 276.08 450.34 277.27L450.34 277.27Q450.34 278.27 450.88 278.80Q451.42 279.33 452.47 279.33L452.47 279.33ZM463.65 286.20Q462.64 286.20 462.64 285.65L462.64 285.65L462.64 271.72Q462.64 270.09 462.49 269.36Q462.33 268.64 462.33 268.57L462.33 268.57Q462.33 268.26 462.80 268.13Q463.27 267.99 463.70 267.99L463.70 267.99Q464.05 267.99 464.22 268.37Q464.39 268.75 464.46 269.15Q464.54 269.54 464.57 269.65L464.57 269.65Q466.35 267.78 468.55 267.78L468.55 267.78Q470.05 267.78 471.15 268.64Q472.25 269.50 472.82 271.02Q473.40 272.53 473.40 274.48L473.40 274.48Q473.40 276.58 472.76 278.09Q472.12 279.59 470.97 280.37Q469.81 281.14 468.31 281.14L468.31 281.14Q467.23 281.14 466.39 280.82Q465.55 280.49 464.74 279.88L464.74 279.88L464.74 285.65Q464.74 286.20 463.75 286.20L463.75 286.20L463.65 286.20ZM467.83 279.30Q469.50 279.26 470.35 278.07Q471.19 276.89 471.19 274.64L471.19 274.64Q471.19 272.23 470.40 270.91Q469.60 269.60 468.11 269.60L468.11 269.60Q467.28 269.60 466.39 270.05Q465.50 270.50 464.74 271.32L464.74 271.32L464.74 278.17Q466.12 279.30 467.83 279.30L467.83 279.30ZM477.98 286.20Q476.97 286.20 476.97 285.65L476.97 285.65L476.97 271.72Q476.97 270.09 476.82 269.36Q476.66 268.64 476.66 268.57L476.66 268.57Q476.66 268.26 477.13 268.13Q477.60 267.99 478.03 267.99L478.03 267.99Q478.38 267.99 478.55 268.37Q478.72 268.75 478.79 269.15Q478.87 269.54 478.90 269.65L478.90 269.65Q480.68 267.78 482.88 267.78L482.88 267.78Q484.38 267.78 485.48 268.64Q486.58 269.50 487.15 271.02Q487.73 272.53 487.73 274.48L487.73 274.48Q487.73 276.58 487.09 278.09Q486.45 279.59 485.30 280.37Q484.14 281.14 482.64 281.14L482.64 281.14Q481.56 281.14 480.72 280.82Q479.88 280.49 479.07 279.88L479.07 279.88L479.07 285.65Q479.07 286.20 478.08 286.20L478.08 286.20L477.98 286.20ZM482.16 279.30Q483.83 279.26 484.68 278.07Q485.52 276.89 485.52 274.64L485.52 274.64Q485.52 272.23 484.73 270.91Q483.93 269.60 482.44 269.60L482.44 269.60Q481.61 269.60 480.72 270.05Q479.83 270.50 479.07 271.32L479.07 271.32L479.07 278.17Q480.45 279.30 482.16 279.30L482.16 279.30ZM492.65 286.20Q491.84 286.20 491.84 285.80L491.84 285.80Q491.84 285.70 491.95 285.39L491.95 285.39L494.04 280.30L489.67 268.63Q489.66 268.57 489.63 268.46Q489.60 268.36 489.60 268.30L489.60 268.30Q489.60 268.10 489.87 267.99Q490.13 267.88 490.68 267.88L490.68 267.88L490.88 267.88Q491.72 267.88 491.88 268.27L491.88 268.27L494.42 275.05Q494.76 275.94 495.22 277.57L495.22 277.57L495.27 277.57L495.56 276.64Q495.63 276.43 495.80 275.92Q495.97 275.40 496.11 275.05L496.11 275.05L498.60 268.27Q498.73 267.88 499.63 267.88L499.63 267.88L499.71 267.88Q500.70 267.88 500.70 268.30L500.70 268.30Q500.70 268.40 500.62 268.64L500.62 268.64L494.21 285.68Q493.99 286.20 493.03 286.20L493.03 286.20L492.65 286.20ZM510.61 281.04Q509.60 281.04 509.60 280.49L509.60 280.49L509.60 264.25Q509.60 263.86 509.78 263.68Q509.96 263.51 510.36 263.51L510.36 263.51L518.23 263.51Q518.50 263.51 518.61 263.68Q518.72 263.86 518.72 264.25L518.72 264.25L518.72 264.66Q518.72 265.04 518.61 265.22Q518.50 265.40 518.23 265.40L518.23 265.40L511.80 265.40L511.80 271.10L517.78 271.10Q518.03 271.10 518.16 271.28Q518.29 271.47 518.29 271.86L518.29 271.86L518.29 272.24Q518.29 272.63 518.16 272.81Q518.03 272.98 517.78 272.98L517.78 272.98L511.80 272.98L511.80 280.49Q511.80 281.04 510.81 281.04L510.81 281.04L510.61 281.04ZM527.26 281.14Q524.15 281.14 522.64 279.52Q521.13 277.89 521.13 274.55L521.13 274.55Q521.13 271.23 522.60 269.50Q524.08 267.78 526.95 267.78L526.95 267.78Q529.51 267.78 530.81 269.44Q532.11 271.10 532.11 274.31L532.11 274.31Q532.11 274.45 531.96 274.69Q531.82 274.94 531.61 275.13Q531.41 275.32 531.27 275.32L531.27 275.32L523.38 275.32Q523.53 277.41 524.45 278.38Q525.37 279.34 527.23 279.34L527.23 279.34Q528.27 279.34 529.02 279.09Q529.78 278.83 530.48 278.47L530.48 278.47Q530.55 278.44 530.69 278.37Q530.83 278.30 530.89 278.30L530.89 278.30Q531.04 278.30 531.25 278.55Q531.45 278.79 531.60 279.09Q531.75 279.40 531.75 279.54L531.75 279.54Q531.75 279.85 531.13 280.23Q530.51 280.61 529.47 280.87Q528.44 281.14 527.26 281.14L527.26 281.14ZM523.38 273.52L529.87 273.52Q529.87 269.58 526.88 269.58L526.88 269.58Q523.66 269.58 523.38 273.52L523.38 273.52ZM540.75 281.14Q537.64 281.14 536.13 279.52Q534.61 277.89 534.61 274.55L534.61 274.55Q534.61 271.23 536.09 269.50Q537.57 267.78 540.44 267.78L540.44 267.78Q543.00 267.78 544.30 269.44Q545.60 271.10 545.60 274.31L545.60 274.31Q545.60 274.45 545.45 274.69Q545.30 274.94 545.10 275.13Q544.89 275.32 544.75 275.32L544.75 275.32L536.86 275.32Q537.02 277.41 537.94 278.38Q538.86 279.34 540.72 279.34L540.72 279.34Q541.76 279.34 542.51 279.09Q543.26 278.83 543.97 278.47L543.97 278.47Q544.04 278.44 544.18 278.37Q544.32 278.30 544.37 278.30L544.37 278.30Q544.53 278.30 544.73 278.55Q544.94 278.79 545.08 279.09Q545.23 279.40 545.23 279.54L545.23 279.54Q545.23 279.85 544.61 280.23Q543.99 280.61 542.96 280.87Q541.93 281.14 540.75 281.14L540.75 281.14ZM536.86 273.52L543.36 273.52Q543.36 269.58 540.37 269.58L540.37 269.58Q537.15 269.58 536.86 273.52L536.86 273.52ZM552.00 281.14Q550.74 281.14 549.76 280.38Q548.77 279.62 548.77 277.70L548.77 277.70L548.77 262.75Q548.77 262.20 549.77 262.20L549.77 262.20L549.89 262.20Q550.87 262.20 550.87 262.75L550.87 262.75L550.87 277.50Q550.87 278.52 551.24 278.93Q551.60 279.34 552.22 279.34L552.22 279.34Q552.68 279.34 552.95 279.28Q553.22 279.23 553.30 279.23L553.30 279.23Q553.53 279.23 553.68 279.68Q553.82 280.13 553.82 280.40L553.82 280.40Q553.82 281.14 552.00 281.14L552.00 281.14ZM559.01 281.24Q557.96 281.24 557.04 280.97Q556.13 280.70 555.59 280.32Q555.05 279.93 555.05 279.64L555.05 279.64Q555.05 279.50 555.19 279.19Q555.34 278.88 555.55 278.63Q555.75 278.38 555.92 278.38L555.92 278.38Q555.96 278.38 556.17 278.52L556.17 278.52Q556.73 278.89 557.36 279.14Q557.99 279.40 558.86 279.40L558.86 279.40Q561.30 279.40 561.30 277.37L561.30 277.37Q561.30 276.80 561.07 276.40Q560.84 276.01 560.30 275.71Q559.76 275.40 558.82 275.12L558.82 275.12Q557.47 274.73 556.71 274.22Q555.96 273.72 555.65 273.03Q555.34 272.35 555.34 271.38L555.34 271.38Q555.34 270.34 555.87 269.51Q556.40 268.68 557.35 268.22Q558.30 267.75 559.49 267.75L559.49 267.75Q560.32 267.75 561.09 267.91Q561.85 268.06 562.32 268.31Q562.80 268.55 562.80 268.82L562.80 268.82Q562.80 269.02 562.66 269.35Q562.53 269.68 562.33 269.93Q562.13 270.17 561.98 270.17L561.98 270.17Q561.95 270.17 561.63 270.00Q561.30 269.82 560.81 269.67Q560.31 269.52 559.70 269.52L559.70 269.52Q558.75 269.52 558.12 269.95Q557.49 270.38 557.49 271.10L557.49 271.10Q557.49 271.94 557.94 272.45Q558.39 272.96 559.43 273.28L559.43 273.28Q561.04 273.77 561.88 274.26Q562.72 274.76 563.08 275.47Q563.44 276.18 563.44 277.33L563.44 277.33Q563.44 278.43 562.85 279.32Q562.26 280.21 561.25 280.73Q560.24 281.24 559.01 281.24L559.01 281.24Z" data-element="slogan" data-text-path="" data-text="AI-Crafted Meals, Happy Feels" data-font-family="Jaldi" fill="#000000" fill-opacity="1"></path></g></g></svg>